<mxfile host="app.diagrams.net" modified="2020-10-21T21:03:47.966Z" agent="5.0 (Windows NT 10.0; Win64; x64) AppleWebKit/537.36 (KHTML, like Gecko) Chrome/88.0.4292.2 Safari/537.36" etag="4EhUNb2J7dbbZAnqO9TT" version="13.8.1" type="github">
  <diagram name="Page-1" id="c4acf3e9-155e-7222-9cf6-157b1a14988f">
    <mxGraphModel dx="1185" dy="693" grid="1" gridSize="10" guides="1" tooltips="1" connect="1" arrows="1" fold="1" page="1" pageScale="1" pageWidth="1169" pageHeight="827" background="#ffffff" math="0" shadow="0">
      <root>
        <mxCell id="0" />
        <mxCell id="1" parent="0" />
        <mxCell id="5d2195bd80daf111-21" style="edgeStyle=orthogonalEdgeStyle;rounded=0;html=1;labelBackgroundColor=none;startFill=0;endArrow=open;endFill=0;endSize=10;fontFamily=Verdana;fontSize=10;dashed=1;" parent="1" target="17acba5748e5396b-20" edge="1">
          <mxGeometry relative="1" as="geometry">
            <mxPoint x="250" y="157.0344827586207" as="sourcePoint" />
          </mxGeometry>
        </mxCell>
        <mxCell id="5d2195bd80daf111-22" style="edgeStyle=orthogonalEdgeStyle;rounded=0;html=1;exitX=1;exitY=0.75;dashed=1;labelBackgroundColor=none;startFill=0;endArrow=open;endFill=0;endSize=10;fontFamily=Verdana;fontSize=10;" parent="1" target="17acba5748e5396b-30" edge="1">
          <mxGeometry relative="1" as="geometry">
            <Array as="points">
              <mxPoint x="530" y="192" />
              <mxPoint x="530" y="142" />
            </Array>
            <mxPoint x="250" y="191.9999999999999" as="sourcePoint" />
          </mxGeometry>
        </mxCell>
        <mxCell id="5d2195bd80daf111-23" style="edgeStyle=orthogonalEdgeStyle;rounded=0;html=1;dashed=1;labelBackgroundColor=none;startFill=0;endArrow=open;endFill=0;endSize=10;fontFamily=Verdana;fontSize=10;" parent="1" source="5d2195bd80daf111-19" edge="1">
          <mxGeometry relative="1" as="geometry">
            <Array as="points">
              <mxPoint x="320" y="290" />
              <mxPoint x="320" y="120" />
            </Array>
            <mxPoint x="350" y="120" as="targetPoint" />
          </mxGeometry>
        </mxCell>
        <mxCell id="5d2195bd80daf111-24" style="edgeStyle=orthogonalEdgeStyle;rounded=0;html=1;dashed=1;labelBackgroundColor=none;startFill=0;endArrow=open;endFill=0;endSize=10;fontFamily=Verdana;fontSize=10;" parent="1" source="5d2195bd80daf111-19" edge="1">
          <mxGeometry relative="1" as="geometry">
            <Array as="points">
              <mxPoint x="350" y="310" />
              <mxPoint x="350" y="210" />
              <mxPoint x="550" y="210" />
              <mxPoint x="550" y="160" />
            </Array>
            <mxPoint x="580" y="160" as="targetPoint" />
          </mxGeometry>
        </mxCell>
        <mxCell id="5d2195bd80daf111-25" style="edgeStyle=orthogonalEdgeStyle;rounded=0;html=1;dashed=1;labelBackgroundColor=none;startFill=0;endArrow=open;endFill=0;endSize=10;fontFamily=Verdana;fontSize=10;" parent="1" source="5d2195bd80daf111-19" edge="1">
          <mxGeometry relative="1" as="geometry">
            <Array as="points">
              <mxPoint x="370" y="340" />
              <mxPoint x="370" y="300" />
            </Array>
            <mxPoint x="450" y="300" as="targetPoint" />
          </mxGeometry>
        </mxCell>
        <mxCell id="0t5Xo62HnvkwBMm3_UYs-11" value="frame" style="shape=umlFrame;whiteSpace=wrap;html=1;" vertex="1" parent="1">
          <mxGeometry x="20" y="18" width="1130" height="790" as="geometry" />
        </mxCell>
        <mxCell id="0t5Xo62HnvkwBMm3_UYs-34" value="1" style="endArrow=open;html=1;endSize=12;startArrow=diamondThin;startSize=14;startFill=1;edgeStyle=orthogonalEdgeStyle;align=left;verticalAlign=bottom;" edge="1" parent="1">
          <mxGeometry x="-1" y="3" relative="1" as="geometry">
            <mxPoint x="240" y="457.52" as="sourcePoint" />
            <mxPoint x="400" y="457.52" as="targetPoint" />
            <Array as="points">
              <mxPoint x="320" y="457.80999999999995" />
              <mxPoint x="320" y="457.80999999999995" />
            </Array>
          </mxGeometry>
        </mxCell>
        <mxCell id="0t5Xo62HnvkwBMm3_UYs-49" value="Extends" style="endArrow=block;endSize=16;endFill=0;html=1;" edge="1" parent="1" target="0t5Xo62HnvkwBMm3_UYs-45">
          <mxGeometry width="160" relative="1" as="geometry">
            <mxPoint x="150" y="162" as="sourcePoint" />
            <mxPoint x="310" y="106" as="targetPoint" />
          </mxGeometry>
        </mxCell>
        <mxCell id="0t5Xo62HnvkwBMm3_UYs-65" value="Use" style="endArrow=open;endSize=12;dashed=1;html=1;entryX=0;entryY=0.5;entryDx=0;entryDy=0;exitX=1;exitY=0.5;exitDx=0;exitDy=0;" edge="1" parent="1" source="0t5Xo62HnvkwBMm3_UYs-48" target="0t5Xo62HnvkwBMm3_UYs-56">
          <mxGeometry width="160" relative="1" as="geometry">
            <mxPoint x="240" y="242" as="sourcePoint" />
            <mxPoint x="400" y="242" as="targetPoint" />
            <Array as="points">
              <mxPoint x="270" y="315" />
              <mxPoint x="270" y="203" />
            </Array>
          </mxGeometry>
        </mxCell>
        <mxCell id="0t5Xo62HnvkwBMm3_UYs-66" value="Use" style="endArrow=open;endSize=12;dashed=1;html=1;entryX=0;entryY=0.25;entryDx=0;entryDy=0;exitX=1;exitY=0.5;exitDx=0;exitDy=0;" edge="1" parent="1" source="0t5Xo62HnvkwBMm3_UYs-81" target="0t5Xo62HnvkwBMm3_UYs-58">
          <mxGeometry width="160" relative="1" as="geometry">
            <mxPoint x="240" y="354" as="sourcePoint" />
            <mxPoint x="300" y="353" as="targetPoint" />
            <Array as="points">
              <mxPoint x="280" y="342" />
              <mxPoint x="280" y="282" />
            </Array>
          </mxGeometry>
        </mxCell>
        <mxCell id="0t5Xo62HnvkwBMm3_UYs-67" value="1" style="endArrow=open;html=1;endSize=12;startArrow=diamondThin;startSize=14;startFill=0;edgeStyle=orthogonalEdgeStyle;align=left;verticalAlign=bottom;" edge="1" parent="1">
          <mxGeometry x="-1" y="3" relative="1" as="geometry">
            <mxPoint x="560" y="457.5" as="sourcePoint" />
            <mxPoint x="720" y="457.5" as="targetPoint" />
          </mxGeometry>
        </mxCell>
        <mxCell id="0t5Xo62HnvkwBMm3_UYs-83" value="Use" style="endArrow=open;endSize=12;dashed=1;html=1;exitX=0.444;exitY=1.077;exitDx=0;exitDy=0;exitPerimeter=0;entryX=0.439;entryY=-0.038;entryDx=0;entryDy=0;entryPerimeter=0;" edge="1" parent="1" source="0t5Xo62HnvkwBMm3_UYs-64" target="0t5Xo62HnvkwBMm3_UYs-74">
          <mxGeometry width="160" relative="1" as="geometry">
            <mxPoint x="140" y="402" as="sourcePoint" />
            <mxPoint x="300" y="402" as="targetPoint" />
          </mxGeometry>
        </mxCell>
        <mxCell id="0t5Xo62HnvkwBMm3_UYs-45" value="Manager" style="swimlane;fontStyle=1;align=center;verticalAlign=top;childLayout=stackLayout;horizontal=1;startSize=26;horizontalStack=0;resizeParent=1;resizeParentMax=0;resizeLast=0;collapsible=1;marginBottom=0;" vertex="1" parent="1">
          <mxGeometry x="60" y="242" width="180" height="138" as="geometry" />
        </mxCell>
        <mxCell id="0t5Xo62HnvkwBMm3_UYs-46" value="+ IsAdministrator: bool" style="text;strokeColor=none;fillColor=none;align=left;verticalAlign=top;spacingLeft=4;spacingRight=4;overflow=hidden;rotatable=0;points=[[0,0.5],[1,0.5]];portConstraint=eastwest;" vertex="1" parent="0t5Xo62HnvkwBMm3_UYs-45">
          <mxGeometry y="26" width="180" height="26" as="geometry" />
        </mxCell>
        <mxCell id="0t5Xo62HnvkwBMm3_UYs-47" value="" style="line;strokeWidth=1;fillColor=none;align=left;verticalAlign=middle;spacingTop=-1;spacingLeft=3;spacingRight=3;rotatable=0;labelPosition=right;points=[];portConstraint=eastwest;" vertex="1" parent="0t5Xo62HnvkwBMm3_UYs-45">
          <mxGeometry y="52" width="180" height="8" as="geometry" />
        </mxCell>
        <mxCell id="0t5Xo62HnvkwBMm3_UYs-48" value="- AddItems(ReceiptOrder)" style="text;strokeColor=none;fillColor=none;align=left;verticalAlign=top;spacingLeft=4;spacingRight=4;overflow=hidden;rotatable=0;points=[[0,0.5],[1,0.5]];portConstraint=eastwest;fontStyle=0" vertex="1" parent="0t5Xo62HnvkwBMm3_UYs-45">
          <mxGeometry y="60" width="180" height="26" as="geometry" />
        </mxCell>
        <mxCell id="0t5Xo62HnvkwBMm3_UYs-81" value="- RemoveItems(Invoice)" style="text;strokeColor=none;fillColor=none;align=left;verticalAlign=top;spacingLeft=4;spacingRight=4;overflow=hidden;rotatable=0;points=[[0,0.5],[1,0.5]];portConstraint=eastwest;fontStyle=0" vertex="1" parent="0t5Xo62HnvkwBMm3_UYs-45">
          <mxGeometry y="86" width="180" height="26" as="geometry" />
        </mxCell>
        <mxCell id="0t5Xo62HnvkwBMm3_UYs-64" value="- LookUpIfInStock()" style="text;strokeColor=none;fillColor=none;align=left;verticalAlign=top;spacingLeft=4;spacingRight=4;overflow=hidden;rotatable=0;points=[[0,0.5],[1,0.5]];portConstraint=eastwest;fontStyle=0" vertex="1" parent="0t5Xo62HnvkwBMm3_UYs-45">
          <mxGeometry y="112" width="180" height="26" as="geometry" />
        </mxCell>
        <mxCell id="0t5Xo62HnvkwBMm3_UYs-52" value="ReceiptOrder" style="swimlane;fontStyle=1;align=center;verticalAlign=top;childLayout=stackLayout;horizontal=1;startSize=26;horizontalStack=0;resizeParent=1;resizeParentMax=0;resizeLast=0;collapsible=1;marginBottom=0;" vertex="1" parent="1">
          <mxGeometry x="300" y="164" width="160" height="78" as="geometry" />
        </mxCell>
        <mxCell id="0t5Xo62HnvkwBMm3_UYs-56" value="+ Item: object" style="text;strokeColor=none;fillColor=none;align=left;verticalAlign=top;spacingLeft=4;spacingRight=4;overflow=hidden;rotatable=0;points=[[0,0.5],[1,0.5]];portConstraint=eastwest;" vertex="1" parent="0t5Xo62HnvkwBMm3_UYs-52">
          <mxGeometry y="26" width="160" height="26" as="geometry" />
        </mxCell>
        <mxCell id="0t5Xo62HnvkwBMm3_UYs-57" value="+ Quantity: int" style="text;strokeColor=none;fillColor=none;align=left;verticalAlign=top;spacingLeft=4;spacingRight=4;overflow=hidden;rotatable=0;points=[[0,0.5],[1,0.5]];portConstraint=eastwest;" vertex="1" parent="0t5Xo62HnvkwBMm3_UYs-52">
          <mxGeometry y="52" width="160" height="26" as="geometry" />
        </mxCell>
        <mxCell id="0t5Xo62HnvkwBMm3_UYs-58" value="Invoice" style="swimlane;fontStyle=1;align=center;verticalAlign=top;childLayout=stackLayout;horizontal=1;startSize=26;horizontalStack=0;resizeParent=1;resizeParentMax=0;resizeLast=0;collapsible=1;marginBottom=0;" vertex="1" parent="1">
          <mxGeometry x="300" y="259" width="160" height="78" as="geometry" />
        </mxCell>
        <mxCell id="0t5Xo62HnvkwBMm3_UYs-62" value="+ Item: object" style="text;strokeColor=none;fillColor=none;align=left;verticalAlign=top;spacingLeft=4;spacingRight=4;overflow=hidden;rotatable=0;points=[[0,0.5],[1,0.5]];portConstraint=eastwest;" vertex="1" parent="0t5Xo62HnvkwBMm3_UYs-58">
          <mxGeometry y="26" width="160" height="26" as="geometry" />
        </mxCell>
        <mxCell id="0t5Xo62HnvkwBMm3_UYs-63" value="+ Quantity: int" style="text;strokeColor=none;fillColor=none;align=left;verticalAlign=top;spacingLeft=4;spacingRight=4;overflow=hidden;rotatable=0;points=[[0,0.5],[1,0.5]];portConstraint=eastwest;" vertex="1" parent="0t5Xo62HnvkwBMm3_UYs-58">
          <mxGeometry y="52" width="160" height="26" as="geometry" />
        </mxCell>
        <mxCell id="0t5Xo62HnvkwBMm3_UYs-20" value="User" style="swimlane;fontStyle=0;childLayout=stackLayout;horizontal=1;startSize=26;fillColor=none;horizontalStack=0;resizeParent=1;resizeParentMax=0;resizeLast=0;collapsible=1;marginBottom=0;" vertex="1" parent="1">
          <mxGeometry x="60" y="60" width="180" height="104" as="geometry" />
        </mxCell>
        <mxCell id="0t5Xo62HnvkwBMm3_UYs-21" value="+ Enum: TypeOfUser" style="text;strokeColor=none;fillColor=none;align=left;verticalAlign=top;spacingLeft=4;spacingRight=4;overflow=hidden;rotatable=0;points=[[0,0.5],[1,0.5]];portConstraint=eastwest;" vertex="1" parent="0t5Xo62HnvkwBMm3_UYs-20">
          <mxGeometry y="26" width="180" height="26" as="geometry" />
        </mxCell>
        <mxCell id="0t5Xo62HnvkwBMm3_UYs-22" value="+ UserName: String" style="text;strokeColor=none;fillColor=none;align=left;verticalAlign=top;spacingLeft=4;spacingRight=4;overflow=hidden;rotatable=0;points=[[0,0.5],[1,0.5]];portConstraint=eastwest;" vertex="1" parent="0t5Xo62HnvkwBMm3_UYs-20">
          <mxGeometry y="52" width="180" height="26" as="geometry" />
        </mxCell>
        <mxCell id="0t5Xo62HnvkwBMm3_UYs-23" value="+ PasswordHash: string" style="text;strokeColor=none;fillColor=none;align=left;verticalAlign=top;spacingLeft=4;spacingRight=4;overflow=hidden;rotatable=0;points=[[0,0.5],[1,0.5]];portConstraint=eastwest;" vertex="1" parent="0t5Xo62HnvkwBMm3_UYs-20">
          <mxGeometry y="78" width="180" height="26" as="geometry" />
        </mxCell>
        <mxCell id="0t5Xo62HnvkwBMm3_UYs-74" value="Warehouse" style="swimlane;fontStyle=0;childLayout=stackLayout;horizontal=1;startSize=26;fillColor=none;horizontalStack=0;resizeParent=1;resizeParentMax=0;resizeLast=0;collapsible=1;marginBottom=0;" vertex="1" parent="1">
          <mxGeometry x="60" y="432" width="180" height="52" as="geometry" />
        </mxCell>
        <mxCell id="0t5Xo62HnvkwBMm3_UYs-75" value="+ Items: List&lt;Item&gt;" style="text;strokeColor=none;fillColor=none;align=left;verticalAlign=top;spacingLeft=4;spacingRight=4;overflow=hidden;rotatable=0;points=[[0,0.5],[1,0.5]];portConstraint=eastwest;" vertex="1" parent="0t5Xo62HnvkwBMm3_UYs-74">
          <mxGeometry y="26" width="180" height="26" as="geometry" />
        </mxCell>
        <mxCell id="0t5Xo62HnvkwBMm3_UYs-76" value="MoveItem" style="swimlane;fontStyle=1;align=center;verticalAlign=top;childLayout=stackLayout;horizontal=1;startSize=26;horizontalStack=0;resizeParent=1;resizeParentMax=0;resizeLast=0;collapsible=1;marginBottom=0;" vertex="1" parent="1">
          <mxGeometry x="400" y="402" width="160" height="112" as="geometry" />
        </mxCell>
        <mxCell id="0t5Xo62HnvkwBMm3_UYs-77" value="+ Item: object" style="text;strokeColor=none;fillColor=none;align=left;verticalAlign=top;spacingLeft=4;spacingRight=4;overflow=hidden;rotatable=0;points=[[0,0.5],[1,0.5]];portConstraint=eastwest;" vertex="1" parent="0t5Xo62HnvkwBMm3_UYs-76">
          <mxGeometry y="26" width="160" height="26" as="geometry" />
        </mxCell>
        <mxCell id="0t5Xo62HnvkwBMm3_UYs-78" value="+ Quantity: int" style="text;strokeColor=none;fillColor=none;align=left;verticalAlign=top;spacingLeft=4;spacingRight=4;overflow=hidden;rotatable=0;points=[[0,0.5],[1,0.5]];portConstraint=eastwest;" vertex="1" parent="0t5Xo62HnvkwBMm3_UYs-76">
          <mxGeometry y="52" width="160" height="26" as="geometry" />
        </mxCell>
        <mxCell id="0t5Xo62HnvkwBMm3_UYs-79" value="" style="line;strokeWidth=1;fillColor=none;align=left;verticalAlign=middle;spacingTop=-1;spacingLeft=3;spacingRight=3;rotatable=0;labelPosition=right;points=[];portConstraint=eastwest;" vertex="1" parent="0t5Xo62HnvkwBMm3_UYs-76">
          <mxGeometry y="78" width="160" height="8" as="geometry" />
        </mxCell>
        <mxCell id="0t5Xo62HnvkwBMm3_UYs-80" value="+ CheckForStock(int): bool" style="text;strokeColor=none;fillColor=none;align=left;verticalAlign=top;spacingLeft=4;spacingRight=4;overflow=hidden;rotatable=0;points=[[0,0.5],[1,0.5]];portConstraint=eastwest;" vertex="1" parent="0t5Xo62HnvkwBMm3_UYs-76">
          <mxGeometry y="86" width="160" height="26" as="geometry" />
        </mxCell>
        <mxCell id="0t5Xo62HnvkwBMm3_UYs-28" value="Item" style="swimlane;fontStyle=1;childLayout=stackLayout;horizontal=1;startSize=26;horizontalStack=0;resizeParent=1;resizeParentMax=0;resizeLast=0;collapsible=1;marginBottom=0;fillColor=none;" vertex="1" parent="1">
          <mxGeometry x="720" y="402" width="160" height="104" as="geometry">
            <mxRectangle x="360" y="60" width="60" height="26" as="alternateBounds" />
          </mxGeometry>
        </mxCell>
        <mxCell id="0t5Xo62HnvkwBMm3_UYs-29" value="+ PLU: int" style="text;strokeColor=none;fillColor=none;align=left;verticalAlign=top;spacingLeft=4;spacingRight=4;overflow=hidden;rotatable=0;points=[[0,0.5],[1,0.5]];portConstraint=eastwest;" vertex="1" parent="0t5Xo62HnvkwBMm3_UYs-28">
          <mxGeometry y="26" width="160" height="26" as="geometry" />
        </mxCell>
        <mxCell id="0t5Xo62HnvkwBMm3_UYs-30" value="+ Name: string" style="text;strokeColor=none;fillColor=none;align=left;verticalAlign=top;spacingLeft=4;spacingRight=4;overflow=hidden;rotatable=0;points=[[0,0.5],[1,0.5]];portConstraint=eastwest;" vertex="1" parent="0t5Xo62HnvkwBMm3_UYs-28">
          <mxGeometry y="52" width="160" height="26" as="geometry" />
        </mxCell>
        <mxCell id="0t5Xo62HnvkwBMm3_UYs-31" value="+ Price: int" style="text;strokeColor=none;fillColor=none;align=left;verticalAlign=top;spacingLeft=4;spacingRight=4;overflow=hidden;rotatable=0;points=[[0,0.5],[1,0.5]];portConstraint=eastwest;" vertex="1" parent="0t5Xo62HnvkwBMm3_UYs-28">
          <mxGeometry y="78" width="160" height="26" as="geometry" />
        </mxCell>
      </root>
    </mxGraphModel>
  </diagram>
</mxfile>
